<svg width="35" height="35" viewBox="0 0 35 35" fill="none" xmlns="http://www.w3.org/2000/svg">
<path d="M11.6635 32.0843C12.4687 32.0843 13.1214 31.4316 13.1214 30.6264C13.1214 29.8212 12.4687 29.1685 11.6635 29.1685C10.8583 29.1685 10.2056 29.8212 10.2056 30.6264C10.2056 31.4316 10.8583 32.0843 11.6635 32.0843Z" stroke="#2D2D2D" stroke-width="2.91583" stroke-linecap="round" stroke-linejoin="round"/>
<path d="M27.7006 32.0843C28.5058 32.0843 29.1585 31.4316 29.1585 30.6264C29.1585 29.8212 28.5058 29.1685 27.7006 29.1685C26.8954 29.1685 26.2427 29.8212 26.2427 30.6264C26.2427 31.4316 26.8954 32.0843 27.7006 32.0843Z" stroke="#2D2D2D" stroke-width="2.91583" stroke-linecap="round" stroke-linejoin="round"/>
<path d="M2.98877 2.99878H5.9046L9.78266 21.1061C9.92492 21.7693 10.2939 22.3621 10.8261 22.7825C11.3583 23.2029 12.0204 23.4247 12.6985 23.4096H26.9569C27.6205 23.4085 28.2639 23.1811 28.7808 22.765C29.2977 22.3488 29.6572 21.7688 29.7999 21.1207L32.2054 10.2884H7.46457" stroke="#2D2D2D" stroke-width="2.91583" stroke-linecap="round" stroke-linejoin="round"/>
</svg>
