<svg id="svg" version="1.1" xmlns="http://www.w3.org/2000/svg" xmlns:xlink="http://www.w3.org/1999/xlink" width="400" height="66.86838124054462" viewBox="0, 0, 400,66.86838124054462"><g id="svgg"><path id="path0" d="" stroke="none" fill="#fc0404" fill-rule="evenodd"></path><path id="path1" d="M48.461 0.166 C 43.962 1.520,42.769 7.326,46.235 11.000 C 48.249 13.135,52.768 12.870,54.885 10.492 C 59.012 5.859,54.364 -1.612,48.461 0.166 M282.794 0.157 C 278.262 1.611,277.107 7.249,280.573 11.000 C 281.942 12.482,285.497 12.915,287.477 11.842 C 293.082 8.803,291.220 0.235,284.917 0.058 C 284.000 0.032,283.045 0.077,282.794 0.157 M18.583 14.675 C 17.174 14.808,15.968 15.173,14.543 15.895 C 14.067 16.136,13.604 16.333,13.514 16.333 C 13.324 16.333,11.830 17.294,11.583 17.574 C 11.492 17.678,11.139 17.934,10.799 18.141 C 10.459 18.348,10.030 18.720,9.846 18.967 L 9.511 19.417 9.505 17.458 L 9.500 15.500 4.750 15.500 L 0.000 15.500 0.000 41.167 L 0.000 66.833 4.750 66.833 L 9.500 66.833 9.502 58.125 L 9.504 49.417 9.931 49.958 C 10.165 50.256,10.446 50.500,10.554 50.501 C 10.662 50.501,11.039 50.767,11.391 51.091 C 12.022 51.670,14.431 52.975,15.747 53.451 C 18.338 54.387,24.271 54.320,26.604 53.327 C 28.283 52.613,30.223 51.565,30.836 51.042 C 31.184 50.744,31.533 50.499,31.610 50.499 C 31.752 50.497,34.004 48.202,34.917 47.127 C 40.262 40.834,40.313 28.344,35.021 21.406 C 34.191 20.318,31.844 18.000,31.572 18.000 C 31.450 18.000,31.290 17.901,31.217 17.780 C 30.863 17.197,28.195 15.795,26.083 15.083 C 24.589 14.579,21.412 14.406,18.583 14.675 M141.667 14.676 C 140.241 14.805,138.268 15.407,137.270 16.015 C 136.984 16.189,136.660 16.332,136.550 16.333 C 136.336 16.333,134.861 17.261,134.583 17.569 C 134.492 17.671,134.192 17.899,133.917 18.075 C 133.218 18.522,131.169 20.541,131.168 20.783 C 131.167 20.893,131.065 21.043,130.942 21.117 C 130.711 21.253,129.500 22.879,129.500 23.053 C 129.500 23.106,129.248 23.584,128.940 24.116 C 126.627 28.113,125.932 36.163,127.513 40.659 C 127.689 41.161,127.833 41.704,127.833 41.867 C 127.833 43.306,132.722 50.079,134.047 50.478 C 134.159 50.511,134.325 50.625,134.417 50.731 C 134.681 51.036,136.317 52.167,136.494 52.167 C 136.583 52.167,136.983 52.350,137.385 52.574 C 142.069 55.189,150.053 54.514,154.132 51.158 C 154.563 50.803,155.160 50.315,155.458 50.073 L 156.000 49.634 156.000 51.484 L 156.000 53.333 160.833 53.333 L 165.667 53.333 165.667 34.417 L 165.667 15.500 160.833 15.500 L 156.000 15.500 156.000 17.367 L 156.000 19.234 155.368 18.617 C 155.020 18.278,154.676 18.000,154.603 18.000 C 154.530 18.000,154.178 17.750,153.821 17.445 C 153.121 16.846,151.226 15.866,149.521 15.222 C 147.838 14.586,144.895 14.381,141.667 14.676 M233.167 14.663 C 230.344 14.934,226.894 16.615,224.808 18.736 L 224.167 19.389 224.167 17.444 L 224.167 15.500 219.250 15.500 L 214.333 15.500 214.333 34.417 L 214.333 53.333 219.241 53.333 L 224.149 53.333 224.217 42.625 C 224.289 31.192,224.367 29.995,225.149 28.333 C 226.682 25.078,228.990 23.421,232.000 23.418 C 233.644 23.417,233.519 23.380,235.466 24.422 C 235.890 24.649,237.101 26.184,237.368 26.833 C 238.270 29.026,238.494 32.442,238.498 44.042 L 238.500 53.333 243.333 53.333 L 248.167 53.333 248.168 44.208 C 248.170 35.078,248.292 32.197,248.760 30.167 C 248.898 29.571,249.070 28.817,249.144 28.491 C 249.975 24.789,255.482 22.225,258.844 23.975 C 260.012 24.582,260.667 25.106,260.667 25.434 C 260.667 25.549,260.776 25.753,260.910 25.887 C 262.156 27.132,262.333 29.144,262.333 42.022 L 262.333 53.333 267.250 53.333 L 272.167 53.333 272.167 40.313 C 272.167 24.336,272.136 24.010,270.273 20.009 C 269.748 18.883,267.267 16.737,265.491 15.874 C 263.052 14.689,262.688 14.614,259.333 14.606 C 255.718 14.597,255.112 14.729,252.000 16.213 C 250.453 16.950,248.199 18.862,247.192 20.292 C 246.688 21.007,246.646 20.992,245.954 19.872 C 245.262 18.751,242.861 16.333,242.439 16.333 C 242.389 16.333,241.988 16.123,241.549 15.867 C 239.578 14.716,236.788 14.316,233.167 14.663 M376.000 14.667 C 373.917 14.878,370.287 16.351,368.985 17.514 C 368.685 17.781,368.380 18.000,368.308 18.000 C 368.148 18.000,365.785 20.372,365.083 21.236 C 359.705 27.863,359.647 40.380,364.965 47.000 C 365.943 48.217,368.208 50.500,368.438 50.500 C 368.555 50.500,368.710 50.599,368.783 50.720 C 369.071 51.194,371.620 52.627,373.573 53.412 C 375.845 54.326,381.773 54.347,384.255 53.450 C 385.563 52.978,387.639 51.840,388.408 51.174 C 388.836 50.803,389.246 50.500,389.319 50.500 C 389.392 50.500,389.650 50.316,389.892 50.091 L 390.333 49.683 390.333 51.508 L 390.333 53.333 395.167 53.333 L 400.000 53.333 400.000 34.417 L 400.000 15.500 395.167 15.500 L 390.333 15.500 390.333 17.344 L 390.333 19.188 389.708 18.595 C 389.365 18.269,388.993 18.002,388.883 18.001 C 388.773 18.001,388.623 17.897,388.550 17.771 C 388.196 17.163,384.664 15.379,382.912 14.923 C 381.751 14.620,377.880 14.477,376.000 14.667 M45.500 34.417 L 45.500 53.333 50.333 53.333 L 55.167 53.333 55.167 34.417 L 55.167 15.500 50.333 15.500 L 45.500 15.500 45.500 34.417 M61.833 19.583 L 61.833 23.667 68.921 23.667 L 76.008 23.667 75.443 24.708 C 75.132 25.281,74.711 26.012,74.507 26.333 C 73.907 27.275,72.712 29.350,72.252 30.250 C 72.018 30.708,71.604 31.421,71.331 31.833 C 71.059 32.246,70.681 32.921,70.490 33.333 C 70.299 33.746,70.045 34.196,69.925 34.333 C 69.805 34.471,69.389 35.183,69.000 35.917 C 68.611 36.650,68.199 37.362,68.085 37.500 C 67.971 37.637,67.522 38.420,67.087 39.239 C 66.651 40.058,66.203 40.821,66.090 40.933 C 65.978 41.046,65.785 41.388,65.661 41.694 C 65.538 42.000,65.114 42.746,64.719 43.352 C 64.323 43.958,64.000 44.529,64.000 44.621 C 64.000 44.712,63.812 45.064,63.582 45.403 C 63.352 45.742,62.855 46.596,62.478 47.301 C 62.101 48.006,61.699 48.696,61.585 48.833 C 61.471 48.971,61.020 49.758,60.583 50.583 C 60.146 51.408,59.735 52.121,59.669 52.167 C 59.501 52.284,59.167 52.943,59.167 53.156 C 59.167 53.280,63.783 53.333,74.583 53.333 L 90.000 53.333 90.000 49.167 L 90.000 45.000 82.068 45.000 L 74.136 45.000 74.484 44.458 C 74.676 44.160,74.987 43.596,75.176 43.203 C 75.589 42.347,76.502 40.836,76.792 40.530 C 76.906 40.409,77.000 40.197,77.000 40.060 C 77.000 39.922,77.214 39.497,77.476 39.113 C 77.738 38.730,78.215 37.929,78.536 37.333 C 79.237 36.032,80.360 34.060,81.051 32.917 C 81.328 32.458,81.810 31.609,82.122 31.030 C 82.434 30.450,82.909 29.630,83.178 29.206 C 83.447 28.782,83.667 28.342,83.667 28.229 C 83.667 28.116,83.763 27.925,83.881 27.804 C 84.160 27.516,84.996 26.096,85.381 25.255 C 85.547 24.890,85.744 24.553,85.818 24.505 C 85.892 24.456,86.272 23.817,86.662 23.083 C 87.053 22.350,87.626 21.362,87.936 20.888 C 88.246 20.415,88.500 19.943,88.500 19.840 C 88.500 19.737,88.650 19.431,88.833 19.160 C 89.017 18.889,89.320 18.440,89.507 18.164 C 89.695 17.887,89.988 17.333,90.160 16.932 C 90.332 16.531,90.554 16.153,90.653 16.092 C 91.586 15.515,91.216 15.500,76.333 15.500 L 61.833 15.500 61.833 19.583 M94.333 19.583 L 94.333 23.667 101.345 23.667 L 108.356 23.667 108.237 24.042 C 108.172 24.248,107.844 24.867,107.508 25.417 C 106.960 26.313,106.783 26.621,106.315 27.500 C 106.242 27.637,105.939 28.162,105.643 28.667 C 105.346 29.171,104.949 29.862,104.760 30.202 C 104.062 31.459,103.113 33.107,102.619 33.917 C 102.340 34.375,101.851 35.237,101.532 35.833 C 101.213 36.429,100.738 37.230,100.476 37.613 C 100.214 37.997,100.000 38.422,100.000 38.560 C 100.000 38.697,99.906 38.909,99.791 39.030 C 99.473 39.366,98.389 41.201,98.260 41.624 C 98.196 41.830,98.048 42.095,97.930 42.213 C 97.812 42.331,97.390 43.026,96.993 43.756 C 96.596 44.486,96.023 45.457,95.719 45.914 C 95.415 46.372,95.167 46.843,95.167 46.963 C 95.167 47.083,95.090 47.271,94.997 47.382 C 94.581 47.874,93.500 49.700,93.500 49.910 C 93.500 50.038,93.406 50.242,93.291 50.363 C 92.844 50.835,91.833 52.652,91.833 52.983 L 91.833 53.333 107.083 53.333 L 122.333 53.333 122.333 49.167 L 122.333 45.000 114.500 45.000 C 110.192 45.000,106.667 44.952,106.667 44.892 C 106.667 44.833,106.919 44.402,107.228 43.934 C 107.537 43.466,107.998 42.671,108.251 42.167 C 108.504 41.662,108.913 40.950,109.158 40.583 C 109.404 40.217,109.817 39.504,110.075 39.000 C 110.333 38.496,110.759 37.770,111.022 37.387 C 111.285 37.003,111.500 36.578,111.500 36.440 C 111.500 36.303,111.598 36.091,111.717 35.970 C 112.001 35.681,112.732 34.441,113.173 33.500 C 113.366 33.087,113.621 32.637,113.740 32.500 C 113.859 32.362,114.273 31.650,114.660 30.917 C 115.048 30.183,115.466 29.469,115.590 29.330 C 115.714 29.191,115.952 28.779,116.119 28.414 C 116.498 27.586,117.338 26.153,117.608 25.874 C 117.720 25.759,117.863 25.496,117.926 25.291 C 118.049 24.892,119.088 23.092,119.450 22.654 C 119.569 22.509,119.667 22.297,119.667 22.184 C 119.667 22.070,119.882 21.663,120.145 21.280 C 120.407 20.897,120.834 20.171,121.092 19.667 C 121.350 19.162,121.762 18.450,122.008 18.083 C 122.449 17.425,123.333 15.761,123.333 15.589 C 123.333 15.540,116.808 15.500,108.833 15.500 L 94.333 15.500 94.333 19.583 M279.833 34.417 L 279.833 53.333 284.667 53.333 L 289.500 53.333 289.500 34.417 L 289.500 15.500 284.667 15.500 L 279.833 15.500 279.833 34.417 M296.167 19.583 L 296.167 23.667 303.254 23.667 L 310.341 23.667 309.776 24.708 C 309.466 25.281,309.044 26.012,308.840 26.333 C 308.182 27.365,307.022 29.395,306.648 30.167 C 306.448 30.579,305.995 31.353,305.642 31.887 C 305.289 32.420,305.000 32.933,305.000 33.025 C 305.000 33.118,304.746 33.581,304.436 34.055 C 304.126 34.529,303.593 35.442,303.253 36.083 C 302.912 36.725,302.532 37.364,302.409 37.503 C 302.286 37.642,302.048 38.055,301.881 38.420 C 301.502 39.248,300.662 40.681,300.392 40.959 C 300.280 41.074,300.137 41.337,300.074 41.543 C 299.951 41.941,298.912 43.741,298.550 44.180 C 298.431 44.325,298.333 44.542,298.333 44.664 C 298.333 44.786,298.157 45.117,297.942 45.401 C 297.726 45.685,297.229 46.517,296.838 47.250 C 296.447 47.983,296.027 48.697,295.906 48.836 C 295.784 48.975,295.548 49.388,295.381 49.753 C 295.034 50.511,294.153 52.042,293.991 52.167 C 293.829 52.292,293.500 52.954,293.500 53.156 C 293.500 53.280,298.116 53.333,308.917 53.333 L 324.333 53.333 324.333 49.167 L 324.333 45.000 316.401 45.000 L 308.469 45.000 308.817 44.458 C 309.008 44.160,309.336 43.579,309.545 43.167 C 310.082 42.110,310.869 40.788,311.108 40.541 C 311.220 40.426,311.364 40.163,311.428 39.957 C 311.528 39.639,311.962 38.855,313.437 36.333 C 313.571 36.104,313.883 35.554,314.132 35.111 C 314.380 34.668,314.839 33.881,315.152 33.361 C 315.465 32.842,316.019 31.854,316.383 31.167 C 316.747 30.479,317.260 29.603,317.523 29.220 C 317.785 28.837,318.000 28.411,318.000 28.274 C 318.000 28.136,318.094 27.925,318.209 27.804 C 318.527 27.468,319.611 25.632,319.740 25.209 C 319.804 25.004,319.956 24.735,320.078 24.612 C 320.201 24.489,320.658 23.720,321.094 22.903 C 321.530 22.085,321.980 21.304,322.094 21.167 C 322.208 21.029,322.619 20.317,323.006 19.583 C 323.394 18.850,323.811 18.135,323.932 17.994 C 324.054 17.853,324.309 17.387,324.498 16.959 C 324.688 16.531,324.916 16.135,325.005 16.080 C 325.916 15.517,325.498 15.500,310.667 15.500 L 296.167 15.500 296.167 19.583 M328.667 19.583 L 328.667 23.667 335.667 23.667 C 343.097 23.667,343.250 23.684,342.502 24.431 C 342.289 24.644,341.207 26.438,340.902 27.083 C 340.773 27.358,340.405 27.996,340.085 28.500 C 339.765 29.004,339.349 29.752,339.162 30.161 C 338.974 30.570,338.759 30.945,338.684 30.994 C 338.610 31.043,338.223 31.683,337.826 32.417 C 337.429 33.150,336.856 34.124,336.552 34.581 C 336.248 35.038,336.000 35.471,336.000 35.542 C 336.000 35.614,335.672 36.215,335.272 36.878 C 334.871 37.541,334.491 38.252,334.427 38.457 C 334.364 38.663,334.220 38.926,334.108 39.041 C 333.839 39.319,332.998 40.752,332.619 41.579 C 332.453 41.943,332.255 42.280,332.181 42.329 C 332.106 42.377,331.684 43.092,331.243 43.917 C 330.802 44.742,330.230 45.709,329.971 46.067 C 329.712 46.424,329.500 46.821,329.500 46.949 C 329.500 47.076,329.423 47.271,329.330 47.382 C 328.914 47.874,327.833 49.700,327.833 49.910 C 327.833 50.038,327.740 50.242,327.625 50.363 C 327.210 50.802,326.312 52.397,326.220 52.860 L 326.125 53.333 341.396 53.333 L 356.667 53.333 356.667 49.167 L 356.667 45.000 348.833 45.000 C 344.525 45.000,341.000 44.952,341.000 44.892 C 341.000 44.833,341.253 44.402,341.562 43.934 C 341.871 43.466,342.331 42.671,342.584 42.167 C 342.838 41.662,343.250 40.950,343.500 40.583 C 343.750 40.217,344.163 39.504,344.417 39.000 C 344.670 38.496,345.093 37.770,345.356 37.387 C 345.618 37.003,345.833 36.578,345.833 36.440 C 345.833 36.303,345.927 36.091,346.042 35.970 C 346.360 35.634,347.444 33.799,347.574 33.376 C 347.637 33.170,347.789 32.902,347.912 32.779 C 348.034 32.656,348.492 31.887,348.928 31.069 C 349.364 30.252,349.811 29.471,349.921 29.333 C 350.032 29.196,350.480 28.408,350.917 27.583 C 351.354 26.758,351.773 26.044,351.847 25.995 C 351.922 25.947,352.119 25.610,352.286 25.245 C 352.671 24.404,353.507 22.984,353.786 22.696 C 353.904 22.575,354.000 22.384,354.000 22.271 C 354.000 22.158,354.229 21.705,354.508 21.264 C 354.788 20.823,355.214 20.077,355.455 19.606 C 355.697 19.135,356.096 18.450,356.342 18.083 C 356.783 17.425,357.667 15.761,357.667 15.589 C 357.667 15.540,351.142 15.500,343.167 15.500 L 328.667 15.500 328.667 19.583 M22.715 24.125 C 23.677 24.468,24.457 24.879,24.988 25.323 C 25.433 25.695,25.880 26.000,25.981 26.000 C 26.083 26.000,26.169 26.094,26.173 26.208 C 26.176 26.323,26.551 26.823,27.006 27.319 C 27.461 27.815,27.833 28.342,27.833 28.490 C 27.833 28.638,27.951 28.927,28.094 29.132 C 29.636 31.332,29.671 36.904,28.160 39.383 C 27.981 39.676,27.834 40.023,27.834 40.154 C 27.833 40.421,26.380 42.149,25.513 42.914 C 25.199 43.190,24.862 43.497,24.763 43.594 C 24.517 43.837,22.749 44.646,21.833 44.933 C 18.850 45.871,15.281 45.042,12.708 42.815 C 12.044 42.240,11.500 41.694,11.500 41.602 C 11.500 41.510,11.323 41.243,11.107 41.009 C 10.344 40.184,9.779 38.784,9.320 36.583 C 8.727 33.739,9.623 29.263,11.107 27.658 C 11.323 27.423,11.500 27.150,11.500 27.050 C 11.500 26.950,11.781 26.630,12.125 26.338 C 12.469 26.047,13.004 25.591,13.314 25.325 C 13.861 24.855,15.862 23.988,17.128 23.672 C 18.445 23.343,21.127 23.560,22.715 24.125 M149.750 24.068 C 151.504 24.712,154.160 26.610,154.170 27.225 C 154.171 27.331,154.340 27.578,154.545 27.776 C 157.547 30.672,156.719 39.915,153.221 42.551 C 152.954 42.752,152.569 43.087,152.365 43.295 C 149.882 45.826,143.553 45.849,140.585 43.338 C 139.152 42.126,137.903 40.639,137.646 39.839 C 137.542 39.515,137.386 39.161,137.299 39.051 C 135.545 36.837,136.358 29.833,138.674 27.202 C 139.037 26.790,139.333 26.391,139.333 26.314 C 139.333 26.238,139.540 26.066,139.792 25.932 C 140.044 25.798,140.442 25.506,140.676 25.284 C 142.449 23.602,146.868 23.009,149.750 24.068 M384.167 24.094 C 388.164 25.584,390.460 28.904,390.785 33.667 C 390.863 34.814,390.806 35.289,390.214 38.396 C 390.090 39.046,388.119 42.333,387.853 42.333 C 387.788 42.333,387.406 42.641,387.003 43.017 C 383.520 46.264,377.494 45.986,373.920 42.414 C 373.053 41.547,372.167 40.439,372.167 40.221 C 372.167 40.106,371.989 39.690,371.771 39.298 C 370.656 37.283,370.352 33.298,371.132 30.917 C 371.799 28.884,373.427 26.203,374.167 25.923 C 374.304 25.870,374.706 25.566,375.060 25.247 C 375.414 24.928,375.715 24.667,375.728 24.667 C 375.742 24.667,376.503 24.400,377.418 24.074 C 379.590 23.301,382.057 23.308,384.167 24.094 " stroke="none" fill="#040404" fill-rule="evenodd"></path><path id="path2" d="" stroke="none" fill="#1000404" fill-rule="evenodd"></path><path id="path3" d="" stroke="none" fill="#440404" fill-rule="evenodd"></path><path id="path4" d="" stroke="none" fill="#080404" fill-rule="evenodd"></path></g></svg>